<svg xmlns="http://www.w3.org/2000/svg" viewBox="0 0 960 620" width="960" height="620">
  <style>
    text { font-family: -apple-system, BlinkMacSystemFont, 'Segoe UI', 'Helvetica Neue', Arial, sans-serif; }
  </style>
  <defs>
    <marker id="arrow-green" markerWidth="8" markerHeight="6" refX="7" refY="3" orient="auto">
      <polygon points="0 0, 8 3, 0 6" fill="#386A20"/>
    </marker>
    <marker id="arrow-gray" markerWidth="8" markerHeight="6" refX="7" refY="3" orient="auto">
      <polygon points="0 0, 8 3, 0 6" fill="#9ca3af"/>
    </marker>
  </defs>
  <rect width="960" height="620" fill="#ffffff"/>
  <text x="32" y="42" font-size="18" font-weight="500" fill="#111827">M-Hike — native app architecture</text>

  <rect x="32" y="64" width="896" height="210" rx="4" fill="#F3F8EF" stroke="#386A20" stroke-width="1" stroke-dasharray="4,3" opacity="0.9"/>
  <text x="44" y="86" font-size="11" font-weight="500" letter-spacing="0.08em" fill="#386A20">UI · ACTIVITIES</text>

  <path d="M500,162 L560,162 L560,106 L676,106" fill="none" stroke="#9ca3af" stroke-width="1.5" stroke-dasharray="4,3" marker-end="url(#arrow-gray)"/>
  <path d="M500,174 L600,174 L600,166 L676,166" fill="none" stroke="#9ca3af" stroke-width="1.5" stroke-dasharray="4,3" marker-end="url(#arrow-gray)"/>
  <path d="M500,186 L580,186 L580,226 L676,226" fill="none" stroke="#9ca3af" stroke-width="1.5" stroke-dasharray="4,3" marker-end="url(#arrow-gray)"/>
  <line x1="240" y1="174" x2="322" y2="174" stroke="#9ca3af" stroke-width="1.5" stroke-dasharray="4,3" marker-end="url(#arrow-gray)"/>

  <rect x="70" y="150" width="170" height="48" rx="4" fill="#E4EFDC" stroke="#386A20" stroke-width="1"/>
  <text x="155" y="170" font-size="14" font-weight="500" fill="#1F3A12" text-anchor="middle">WelcomeActivity</text>
  <text x="155" y="186" font-size="11" fill="#55624C" text-anchor="middle">first launch · theme picker</text>

  <rect x="330" y="150" width="170" height="48" rx="4" fill="#E4EFDC" stroke="#386A20" stroke-width="1"/>
  <text x="415" y="170" font-size="14" font-weight="500" fill="#1F3A12" text-anchor="middle">MainActivity</text>
  <text x="415" y="186" font-size="11" fill="#55624C" text-anchor="middle">hike list</text>

  <rect x="680" y="84" width="210" height="44" rx="4" fill="#E4EFDC" stroke="#386A20" stroke-width="1"/>
  <text x="785" y="111" font-size="14" font-weight="500" fill="#1F3A12" text-anchor="middle">AddEditHikeActivity</text>

  <rect x="680" y="144" width="210" height="44" rx="4" fill="#E4EFDC" stroke="#386A20" stroke-width="1"/>
  <text x="785" y="171" font-size="14" font-weight="500" fill="#1F3A12" text-anchor="middle">HikeDetailActivity</text>

  <rect x="680" y="204" width="210" height="44" rx="4" fill="#E4EFDC" stroke="#386A20" stroke-width="1"/>
  <text x="785" y="231" font-size="14" font-weight="500" fill="#1F3A12" text-anchor="middle">SearchActivity</text>

  <line x1="480" y1="274" x2="480" y2="314" stroke="#386A20" stroke-width="1.5" marker-end="url(#arrow-green)"/>
  <text x="492" y="298" font-size="11" fill="#55624C">CRUD calls</text>

  <rect x="32" y="318" width="896" height="110" rx="4" fill="#FDF6E5" stroke="#B45309" stroke-width="1" stroke-dasharray="4,3" opacity="0.9"/>
  <text x="44" y="340" font-size="11" font-weight="500" letter-spacing="0.08em" fill="#B45309">DATA ACCESS</text>

  <rect x="120" y="356" width="170" height="48" rx="4" fill="#FBEDCB" stroke="#B45309" stroke-width="1"/>
  <text x="205" y="376" font-size="14" font-weight="500" fill="#6B3A08" text-anchor="middle">HikeDao</text>
  <text x="205" y="392" font-size="11" fill="#8A6014" text-anchor="middle">hike CRUD · search</text>

  <rect x="380" y="356" width="190" height="48" rx="4" fill="#FBEDCB" stroke="#B45309" stroke-width="1"/>
  <text x="475" y="376" font-size="14" font-weight="500" fill="#6B3A08" text-anchor="middle">ObservationDao</text>
  <text x="475" y="392" font-size="11" fill="#8A6014" text-anchor="middle">observation CRUD</text>

  <rect x="660" y="356" width="210" height="48" rx="4" fill="#FBEDCB" stroke="#B45309" stroke-width="1"/>
  <text x="765" y="376" font-size="14" font-weight="500" fill="#6B3A08" text-anchor="middle">HikeDatabaseHelper</text>
  <text x="765" y="392" font-size="11" fill="#8A6014" text-anchor="middle">schema · migrations</text>

  <path d="M205,404 L205,445 L420,445 L420,462" fill="none" stroke="#386A20" stroke-width="1.5" marker-end="url(#arrow-green)"/>
  <line x1="475" y1="404" x2="475" y2="462" stroke="#386A20" stroke-width="1.5" marker-end="url(#arrow-green)"/>
  <path d="M765,404 L765,445 L540,445 L540,462" fill="none" stroke="#9ca3af" stroke-width="1.5" stroke-dasharray="4,3" marker-end="url(#arrow-gray)"/>

  <ellipse cx="480" cy="478" rx="110" ry="14" fill="#E0EEED" stroke="#19686A" stroke-width="1"/>
  <rect x="370" y="478" width="220" height="70" fill="#E0EEED" stroke="none"/>
  <line x1="370" y1="478" x2="370" y2="548" stroke="#19686A" stroke-width="1"/>
  <line x1="590" y1="478" x2="590" y2="548" stroke="#19686A" stroke-width="1"/>
  <path d="M370,548 A110,14 0 0 0 590,548" fill="#E0EEED" stroke="#19686A" stroke-width="1"/>
  <text x="480" y="512" font-size="14" font-weight="500" fill="#0E3B3C" text-anchor="middle">SQLite · mhike.db</text>
  <text x="480" y="530" font-size="11" fill="#3C6B6C" text-anchor="middle">hikes → observations (FK, ON DELETE CASCADE)</text>

  <line x1="40" y1="592" x2="76" y2="592" stroke="#386A20" stroke-width="1.5" marker-end="url(#arrow-green)"/>
  <text x="84" y="596" font-size="11" fill="#55624C">data access</text>
  <line x1="180" y1="592" x2="216" y2="592" stroke="#9ca3af" stroke-width="1.5" stroke-dasharray="4,3" marker-end="url(#arrow-gray)"/>
  <text x="224" y="596" font-size="11" fill="#6b7280">navigation · setup</text>
</svg>
