<svg xmlns="http://www.w3.org/2000/svg" viewBox="0 0 960 640" width="960" height="640">
  <style>
    text { font-family: -apple-system, BlinkMacSystemFont, 'Segoe UI', 'Helvetica Neue', Arial, sans-serif; }
  </style>
  <defs>
    <marker id="arrow-open" markerWidth="10" markerHeight="8" refX="9" refY="4" orient="auto">
      <path d="M1,1 L9,4 L1,7" fill="none" stroke="#6b7280" stroke-width="1.2"/>
    </marker>
  </defs>
  <rect width="960" height="640" fill="#ffffff"/>
  <text x="32" y="42" font-size="18" font-weight="500" fill="#111827">M-Hike — use case diagram</text>

  <rect x="250" y="70" width="560" height="520" rx="4" fill="#FAFCF8" stroke="#386A20" stroke-width="1" stroke-dasharray="4,3"/>
  <text x="262" y="92" font-size="11" font-weight="500" letter-spacing="0.08em" fill="#386A20">M-HIKE</text>

  <line x1="163" y1="316" x2="320" y2="130" stroke="#9ca3af" stroke-width="1"/>
  <line x1="163" y1="319" x2="320" y2="230" stroke="#9ca3af" stroke-width="1"/>
  <line x1="163" y1="322" x2="320" y2="330" stroke="#9ca3af" stroke-width="1"/>
  <line x1="163" y1="325" x2="320" y2="430" stroke="#9ca3af" stroke-width="1"/>
  <line x1="163" y1="328" x2="320" y2="530" stroke="#9ca3af" stroke-width="1"/>

  <circle cx="150" cy="290" r="10" fill="none" stroke="#111827" stroke-width="1.5"/>
  <line x1="150" y1="300" x2="150" y2="330" stroke="#111827" stroke-width="1.5"/>
  <line x1="134" y1="312" x2="166" y2="312" stroke="#111827" stroke-width="1.5"/>
  <line x1="150" y1="330" x2="137" y2="352" stroke="#111827" stroke-width="1.5"/>
  <line x1="150" y1="330" x2="163" y2="352" stroke="#111827" stroke-width="1.5"/>
  <text x="150" y="372" font-size="13" font-weight="500" fill="#111827" text-anchor="middle">Hiker</text>

  <ellipse cx="405" cy="130" rx="85" ry="30" fill="#E4EFDC" stroke="#386A20" stroke-width="1.2"/>
  <text x="405" y="134" font-size="13" fill="#111827" text-anchor="middle">Plan a new hike</text>

  <ellipse cx="405" cy="230" rx="85" ry="30" fill="#E4EFDC" stroke="#386A20" stroke-width="1.2"/>
  <text x="405" y="234" font-size="13" fill="#111827" text-anchor="middle">Edit or delete hikes</text>

  <ellipse cx="405" cy="330" rx="85" ry="30" fill="#E4EFDC" stroke="#386A20" stroke-width="1.2"/>
  <text x="405" y="334" font-size="13" fill="#111827" text-anchor="middle">Search hikes</text>

  <ellipse cx="405" cy="430" rx="85" ry="30" fill="#E4EFDC" stroke="#386A20" stroke-width="1.2"/>
  <text x="405" y="434" font-size="13" fill="#111827" text-anchor="middle">Record observation</text>

  <ellipse cx="405" cy="530" rx="85" ry="30" fill="#E4EFDC" stroke="#386A20" stroke-width="1.2"/>
  <text x="405" y="534" font-size="13" fill="#111827" text-anchor="middle">Share a hike</text>

  <ellipse cx="655" cy="130" rx="85" ry="30" fill="#FBEDCB" stroke="#B45309" stroke-width="1.2"/>
  <text x="655" y="134" font-size="13" fill="#111827" text-anchor="middle">Confirm details</text>

  <ellipse cx="655" cy="230" rx="85" ry="30" fill="#FBEDCB" stroke="#B45309" stroke-width="1.2"/>
  <text x="655" y="234" font-size="13" fill="#111827" text-anchor="middle">Autofill location</text>

  <ellipse cx="655" cy="330" rx="85" ry="30" fill="#FBEDCB" stroke="#B45309" stroke-width="1.2"/>
  <text x="655" y="334" font-size="13" fill="#111827" text-anchor="middle">Advanced filters</text>

  <ellipse cx="655" cy="430" rx="85" ry="30" fill="#FBEDCB" stroke="#B45309" stroke-width="1.2"/>
  <text x="655" y="434" font-size="13" fill="#111827" text-anchor="middle">Attach photo</text>

  <line x1="490" y1="130" x2="562" y2="130" stroke="#6b7280" stroke-width="1.2" stroke-dasharray="5,3" marker-end="url(#arrow-open)"/>
  <text x="526" y="118" font-size="11" fill="#6b7280" text-anchor="middle">&#171;include&#187;</text>

  <line x1="585" y1="208" x2="474" y2="157" stroke="#6b7280" stroke-width="1.2" stroke-dasharray="5,3" marker-end="url(#arrow-open)"/>
  <text x="592" y="190" font-size="11" fill="#6b7280">&#171;extend&#187;</text>

  <line x1="566" y1="330" x2="494" y2="330" stroke="#6b7280" stroke-width="1.2" stroke-dasharray="5,3" marker-end="url(#arrow-open)"/>
  <text x="530" y="318" font-size="11" fill="#6b7280" text-anchor="middle">&#171;extend&#187;</text>

  <line x1="566" y1="430" x2="494" y2="430" stroke="#6b7280" stroke-width="1.2" stroke-dasharray="5,3" marker-end="url(#arrow-open)"/>
  <text x="530" y="418" font-size="11" fill="#6b7280" text-anchor="middle">&#171;extend&#187;</text>

  <line x1="740" y1="230" x2="864" y2="230" stroke="#9ca3af" stroke-width="1"/>
  <circle cx="880" cy="205" r="9" fill="none" stroke="#111827" stroke-width="1.5"/>
  <line x1="880" y1="214" x2="880" y2="240" stroke="#111827" stroke-width="1.5"/>
  <line x1="866" y1="224" x2="894" y2="224" stroke="#111827" stroke-width="1.5"/>
  <line x1="880" y1="240" x2="869" y2="258" stroke="#111827" stroke-width="1.5"/>
  <line x1="880" y1="240" x2="891" y2="258" stroke="#111827" stroke-width="1.5"/>
  <text x="880" y="276" font-size="13" font-weight="500" fill="#111827" text-anchor="middle">GPS service</text>

  <line x1="740" y1="430" x2="864" y2="430" stroke="#9ca3af" stroke-width="1"/>
  <circle cx="880" cy="405" r="9" fill="none" stroke="#111827" stroke-width="1.5"/>
  <line x1="880" y1="414" x2="880" y2="440" stroke="#111827" stroke-width="1.5"/>
  <line x1="866" y1="424" x2="894" y2="424" stroke="#111827" stroke-width="1.5"/>
  <line x1="880" y1="440" x2="869" y2="458" stroke="#111827" stroke-width="1.5"/>
  <line x1="880" y1="440" x2="891" y2="458" stroke="#111827" stroke-width="1.5"/>
  <text x="880" y="476" font-size="13" font-weight="500" fill="#111827" text-anchor="middle">Camera</text>
</svg>
